<svg xmlns="http://www.w3.org/2000/svg" viewBox="0 0 64 64" fill="none">
<defs>
<radialGradient id="comfort-halo"><stop stop-color="#a9eee4" stop-opacity=".22"/><stop offset="1" stop-color="#4b9da7" stop-opacity=".03"/></radialGradient>
<linearGradient id="comfort-sea" x1="16" y1="15" x2="46" y2="52" gradientUnits="userSpaceOnUse"><stop stop-color="#eefef6"/><stop offset=".38" stop-color="#8ce9e0"/><stop offset="1" stop-color="#289bb0"/></linearGradient>
<linearGradient id="comfort-gold" x1="20" y1="12" x2="45" y2="51" gradientUnits="userSpaceOnUse"><stop stop-color="#fff3c8"/><stop offset=".5" stop-color="#f3cb83"/><stop offset="1" stop-color="#bd985d"/></linearGradient>
</defs>
<circle cx="32" cy="32" r="29" fill="url(#comfort-halo)" stroke="#b0dfd8" stroke-opacity=".25"/>
<path d="M12 14a27 27 0 0 1 20-9M52 50a27 27 0 0 1-20 9" stroke="url(#comfort-gold)" stroke-width="1.4" stroke-linecap="round"/>
<path d="M32 40c-9-5-16-11-16-17 0-7 10-10 16-3 6-7 16-4 16 3 0 6-7 12-16 17Z" fill="url(#comfort-gold)" stroke="#fff4d5" stroke-width="1.3"/>
<path d="M22 24c0-2 2-4 5-4M20 29l3 3" stroke="#fff9e7" stroke-width="1.8" stroke-linecap="round"/>
<path d="M10 40c7-1 13 2 18 7 2 2 6 2 8 0 5-5 11-8 18-7-5 10-12 14-22 14s-17-4-22-14Z" fill="url(#comfort-sea)" stroke="#cefff0" stroke-width="1.1"/>
<path d="M16 44c6 1 10 6 16 6s10-5 16-6" stroke="#effff7" stroke-width="1.5" stroke-linecap="round"/>
<path d="m32 7 1.3 3.8 4 1.2-4 1.3L32 17l-1.3-3.7-4-1.3 4-1.2L32 7Z" fill="#fff1be"/>
<path d="m11 19 2 2m38-2-2 2M7 32h3m44 0h3" stroke="url(#comfort-gold)" stroke-width="1.5" stroke-linecap="round"/>
</svg>
